<?xml version="1.0" standalone="no"?>
<!DOCTYPE svg PUBLIC "-//W3C//DTD SVG 20010904//EN"
 "http://www.w3.org/TR/2001/REC-SVG-20010904/DTD/svg10.dtd">
<svg version="1.0" xmlns="http://www.w3.org/2000/svg"
 width="260.000000pt" height="260.000000pt" viewBox="0 0 260.000000 260.000000"
 preserveAspectRatio="xMidYMid meet">
<metadata>
Created by potrace 1.14, written by Peter Selinger 2001-2017
</metadata>
<g transform="translate(0.000000,260.000000) scale(0.100000,-0.100000)"
fill="#000000" stroke="none">
<path d="M578 2063 c-2 -38 -2 -119 0 -180 l3 -113 481 0 480 0 -30 -52 c-16
-29 -63 -109 -103 -178 -39 -69 -87 -150 -104 -180 -18 -30 -62 -107 -100
-170 -85 -145 -100 -170 -145 -250 -20 -36 -117 -202 -215 -370 -97 -168 -180
-308 -182 -312 -2 -5 120 -8 271 -8 186 0 276 3 276 10 0 6 16 36 35 66 19 30
34 57 34 60 -1 3 173 312 385 687 l386 682 0 188 0 187 -735 0 -734 0 -3 -67z"/>
</g>
</svg>
